<svg width="40" height="40" viewBox="0 0 40 40" fill="none" xmlns="http://www.w3.org/2000/svg">
<g clip-path="url(#clip0_142_38)">
<path d="M22.5 13.75C22.5 13.4185 22.3683 13.1005 22.1339 12.8661C21.8995 12.6317 21.5815 12.5 21.25 12.5C20.9185 12.5 20.6005 12.6317 20.3661 12.8661C20.1317 13.1005 20 13.4185 20 13.75V17.5H16.25C15.9185 17.5 15.6005 17.6317 15.3661 17.8661C15.1317 18.1005 15 18.4185 15 18.75C15 19.0815 15.1317 19.3995 15.3661 19.6339C15.6005 19.8683 15.9185 20 16.25 20H20V23.75C20 24.0815 20.1317 24.3995 20.3661 24.6339C20.6005 24.8683 20.9185 25 21.25 25C21.5815 25 21.8995 24.8683 22.1339 24.6339C22.3683 24.3995 22.5 24.0815 22.5 23.75V20H26.25C26.5815 20 26.8995 19.8683 27.1339 19.6339C27.3683 19.3995 27.5 19.0815 27.5 18.75C27.5 18.4185 27.3683 18.1005 27.1339 17.8661C26.8995 17.6317 26.5815 17.5 26.25 17.5H22.5V13.75Z" fill="black"/>
<path d="M1.25 2.5C0.918479 2.5 0.600537 2.6317 0.366117 2.86612C0.131696 3.10054 0 3.41848 0 3.75C0 4.08152 0.131696 4.39946 0.366117 4.63388C0.600537 4.8683 0.918479 5 1.25 5H4.025L5.0275 9.0175L8.7725 28.98C8.82612 29.2664 8.97814 29.5252 9.20228 29.7114C9.42641 29.8976 9.70858 29.9997 10 30H12.5C11.1739 30 9.90215 30.5268 8.96447 31.4645C8.02678 32.4021 7.5 33.6739 7.5 35C7.5 36.3261 8.02678 37.5979 8.96447 38.5355C9.90215 39.4732 11.1739 40 12.5 40C13.8261 40 15.0979 39.4732 16.0355 38.5355C16.9732 37.5979 17.5 36.3261 17.5 35C17.5 33.6739 16.9732 32.4021 16.0355 31.4645C15.0979 30.5268 13.8261 30 12.5 30H30C28.6739 30 27.4021 30.5268 26.4645 31.4645C25.5268 32.4021 25 33.6739 25 35C25 36.3261 25.5268 37.5979 26.4645 38.5355C27.4021 39.4732 28.6739 40 30 40C31.3261 40 32.5979 39.4732 33.5355 38.5355C34.4732 37.5979 35 36.3261 35 35C35 33.6739 34.4732 32.4021 33.5355 31.4645C32.5979 30.5268 31.3261 30 30 30H32.5C32.7914 29.9997 33.0736 29.8976 33.2977 29.7114C33.5219 29.5252 33.6739 29.2664 33.7275 28.98L37.4775 8.98C37.5113 8.79959 37.5049 8.61396 37.4588 8.43629C37.4128 8.25863 37.3282 8.09328 37.211 7.95201C37.0938 7.81074 36.947 7.697 36.7809 7.61888C36.6148 7.54076 36.4335 7.50017 36.25 7.5H7.225L6.2125 3.4475C6.14502 3.17696 5.98903 2.93675 5.76933 2.76506C5.54963 2.59338 5.27883 2.50008 5 2.5H1.25ZM11.0375 27.5L7.755 10H34.745L31.4625 27.5H11.0375ZM15 35C15 35.663 14.7366 36.2989 14.2678 36.7678C13.7989 37.2366 13.163 37.5 12.5 37.5C11.837 37.5 11.2011 37.2366 10.7322 36.7678C10.2634 36.2989 10 35.663 10 35C10 34.337 10.2634 33.7011 10.7322 33.2322C11.2011 32.7634 11.837 32.5 12.5 32.5C13.163 32.5 13.7989 32.7634 14.2678 33.2322C14.7366 33.7011 15 34.337 15 35ZM32.5 35C32.5 35.663 32.2366 36.2989 31.7678 36.7678C31.2989 37.2366 30.663 37.5 30 37.5C29.337 37.5 28.7011 37.2366 28.2322 36.7678C27.7634 36.2989 27.5 35.663 27.5 35C27.5 34.337 27.7634 33.7011 28.2322 33.2322C28.7011 32.7634 29.337 32.5 30 32.5C30.663 32.5 31.2989 32.7634 31.7678 33.2322C32.2366 33.7011 32.5 34.337 32.5 35Z" fill="black"/>
</g>
<defs>
<clipPath id="clip0_142_38">
<rect width="40" height="40" fill="white"/>
</clipPath>
</defs>
</svg>
