<svg width="40" height="35" viewBox="0 0 40 35" fill="none" xmlns="http://www.w3.org/2000/svg">
<path fill-rule="evenodd" clip-rule="evenodd" d="M40 17.5012C40 18.1642 39.7366 18.8 39.2679 19.2688C38.7991 19.7376 38.1632 20.0009 37.5003 20.0009H8.53851L19.2723 30.7297C19.5047 30.9621 19.6891 31.2381 19.8149 31.5417C19.9407 31.8454 20.0054 32.1708 20.0054 32.4995C20.0054 32.8282 19.9407 33.1537 19.8149 33.4573C19.6891 33.761 19.5047 34.0369 19.2723 34.2693C19.0399 34.5017 18.764 34.6861 18.4603 34.8119C18.1567 34.9377 17.8312 35.0024 17.5025 35.0024C17.1738 35.0024 16.8484 34.9377 16.5447 34.8119C16.241 34.6861 15.9651 34.5017 15.7327 34.2693L0.734387 19.271C0.501596 19.0388 0.316902 18.763 0.190884 18.4593C0.0648658 18.1556 0 17.83 0 17.5012C0 17.1724 0.0648658 16.8468 0.190884 16.5431C0.316902 16.2395 0.501596 15.9636 0.734387 15.7314L15.7327 0.733077C16.2021 0.263696 16.8387 0 17.5025 0C18.1663 0 18.8029 0.263696 19.2723 0.733077C19.7417 1.20246 20.0054 1.83907 20.0054 2.50288C20.0054 3.16668 19.7417 3.8033 19.2723 4.27268L8.53851 15.0015H37.5003C38.1632 15.0015 38.7991 15.2648 39.2679 15.7336C39.7366 16.2024 40 16.8382 40 17.5012Z" fill="black"/>
</svg>