<svg width="50" height="50" viewBox="0 0 50 50" fill="none" xmlns="http://www.w3.org/2000/svg">
<path d="M0 1.66667C0 1.22464 0.1756 0.800716 0.48817 0.488155C0.800741 0.175595 1.22468 0 1.66672 0H6.66687C7.03865 0.000102705 7.39973 0.124502 7.69267 0.353416C7.98562 0.582329 8.19362 0.902613 8.28359 1.26333L9.63363 6.66667H48.3348C48.5796 6.66689 48.8212 6.72101 49.0427 6.82517C49.2641 6.92933 49.4599 7.08098 49.6162 7.26935C49.7724 7.45771 49.8852 7.67817 49.9467 7.91506C50.0081 8.15195 50.0166 8.39946 49.9715 8.64L44.9714 35.3067C44.8999 35.6886 44.6972 36.0335 44.3983 36.2819C44.0995 36.5302 43.7232 36.6663 43.3347 36.6667H13.3337C12.9452 36.6663 12.5689 36.5302 12.2701 36.2819C11.9712 36.0335 11.7685 35.6886 11.697 35.3067L6.70021 8.69L5.36683 3.33333H1.66672C1.22468 3.33333 0.800741 3.15774 0.48817 2.84518C0.1756 2.53262 0 2.10869 0 1.66667ZM10.3403 10L14.7171 33.3333H41.9513L46.3281 10H10.3403ZM16.6672 36.6667C14.899 36.6667 13.2033 37.369 11.953 38.6193C10.7027 39.8695 10.0003 41.5652 10.0003 43.3333C10.0003 45.1014 10.7027 46.7971 11.953 48.0474C13.2033 49.2976 14.899 50 16.6672 50C18.4353 50 20.1311 49.2976 21.3814 48.0474C22.6317 46.7971 23.3341 45.1014 23.3341 43.3333C23.3341 41.5652 22.6317 39.8695 21.3814 38.6193C20.1311 37.369 18.4353 36.6667 16.6672 36.6667ZM40.0012 36.6667C38.2331 36.6667 36.5373 37.369 35.287 38.6193C34.0368 39.8695 33.3344 41.5652 33.3344 43.3333C33.3344 45.1014 34.0368 46.7971 35.287 48.0474C36.5373 49.2976 38.2331 50 40.0012 50C41.7694 50 43.4651 49.2976 44.7154 48.0474C45.9657 46.7971 46.6681 45.1014 46.6681 43.3333C46.6681 41.5652 45.9657 39.8695 44.7154 38.6193C43.4651 37.369 41.7694 36.6667 40.0012 36.6667ZM16.6672 40C17.5513 40 18.3991 40.3512 19.0243 40.9763C19.6494 41.6014 20.0006 42.4493 20.0006 43.3333C20.0006 44.2174 19.6494 45.0652 19.0243 45.6904C18.3991 46.3155 17.5513 46.6667 16.6672 46.6667C15.7831 46.6667 14.9352 46.3155 14.3101 45.6904C13.6849 45.0652 13.3337 44.2174 13.3337 43.3333C13.3337 42.4493 13.6849 41.6014 14.3101 40.9763C14.9352 40.3512 15.7831 40 16.6672 40ZM40.0012 40C40.8853 40 41.7332 40.3512 42.3583 40.9763C42.9835 41.6014 43.3347 42.4493 43.3347 43.3333C43.3347 44.2174 42.9835 45.0652 42.3583 45.6904C41.7332 46.3155 40.8853 46.6667 40.0012 46.6667C39.1172 46.6667 38.2693 46.3155 37.6441 45.6904C37.019 45.0652 36.6678 44.2174 36.6678 43.3333C36.6678 42.4493 37.019 41.6014 37.6441 40.9763C38.2693 40.3512 39.1172 40 40.0012 40Z" fill="black"/>
</svg>