<svg width="50" height="50" viewBox="0 0 50 50" fill="none" xmlns="http://www.w3.org/2000/svg">
<path d="M18.7473 1.56247C18.7473 1.14808 18.912 0.750658 19.205 0.457638C19.498 0.164617 19.8954 0 20.3098 0L29.6846 0C30.099 0 30.4965 0.164617 30.7895 0.457638C31.0825 0.750658 31.2471 1.14808 31.2471 1.56247C31.2471 1.97687 31.0825 2.37429 30.7895 2.66731C30.4965 2.96033 30.099 3.12495 29.6846 3.12495H28.1222V6.46864C32.3777 7.08293 36.3579 8.93756 39.5656 11.8008C42.7732 14.6641 45.066 18.4091 46.1575 22.5679C47.2491 26.7267 47.091 31.115 45.703 35.1845C44.315 39.2539 41.7586 42.8242 38.3532 45.4492L40.2313 47.3304C40.5247 47.6234 40.6897 48.0209 40.69 48.4356C40.6903 48.8502 40.5259 49.2479 40.2329 49.5413C39.9399 49.8347 39.5424 49.9997 39.1278 50C38.7131 50.0003 38.3154 49.8359 38.022 49.5429L35.6908 47.2117C32.4252 49.0447 28.7421 50.0047 24.9972 49.9991C21.2523 50.0047 17.5693 49.0447 14.3037 47.2117L11.9725 49.5429C11.8272 49.688 11.6548 49.803 11.465 49.8814C11.2753 49.9599 11.072 50.0001 10.8667 50C10.6614 49.9999 10.4581 49.9593 10.2685 49.8806C10.0789 49.8019 9.90662 49.6866 9.76155 49.5413C9.61648 49.3961 9.50145 49.2236 9.42302 49.0339C9.34459 48.8442 9.3043 48.6409 9.30444 48.4356C9.30473 48.0209 9.46972 47.6234 9.76311 47.3304L11.6443 45.4492C8.23904 42.8244 5.68264 39.2544 4.29448 35.1851C2.90632 31.1159 2.74794 26.7278 3.83913 22.5691C4.93032 18.4104 7.2227 14.6654 10.4299 11.8019C13.6371 8.93841 17.617 7.08342 21.8723 6.46864V3.12495H20.3098C19.8954 3.12495 19.498 2.96033 19.205 2.66731C18.912 2.37429 18.7473 1.97687 18.7473 1.56247ZM26.5597 17.1872C26.5597 16.7728 26.3951 16.3754 26.1021 16.0824C25.809 15.7893 25.4116 15.6247 24.9972 15.6247C24.5828 15.6247 24.1854 15.7893 23.8924 16.0824C23.5994 16.3754 23.4348 16.7728 23.4348 17.1872V27.6933L18.9692 35.1306C18.7558 35.4862 18.6924 35.912 18.7929 36.3143C18.8934 36.7166 19.1496 37.0625 19.5051 37.2759C19.8607 37.4893 20.2864 37.5528 20.6888 37.4523C21.0911 37.3517 21.437 37.0955 21.6504 36.74L26.3378 28.9276C26.4831 28.6849 26.5598 28.4074 26.5597 28.1245V17.1872ZM2.68511 16.8341C1.87656 16.1308 1.22135 15.2686 0.760235 14.3013C0.299115 13.3339 0.0419448 12.282 0.004716 11.2111C-0.0325128 10.1401 0.150997 9.07287 0.543832 8.07583C0.936667 7.07879 1.53043 6.17324 2.28819 5.41548C3.04595 4.65771 3.95151 4.06395 4.94854 3.67112C5.94558 3.27828 7.01278 3.09477 8.08377 3.132C9.15476 3.16923 10.2066 3.4264 11.174 3.88752C12.1413 4.34864 13.0035 5.00385 13.7068 5.8124C8.95736 8.22495 5.09766 12.0847 2.68511 16.8341ZM36.2877 5.8124C36.991 5.00385 37.8531 4.34864 38.8205 3.88752C39.7878 3.4264 40.8397 3.16923 41.9107 3.132C42.9817 3.09477 44.0489 3.27828 45.0459 3.67112C46.0429 4.06395 46.9485 4.65771 47.7063 5.41548C48.464 6.17324 49.0578 7.07879 49.4506 8.07583C49.8435 9.07287 50.027 10.1401 49.9897 11.2111C49.9525 12.282 49.6953 13.3339 49.2342 14.3013C48.7731 15.2686 48.1179 16.1308 47.3093 16.8341C44.8968 12.0847 41.0371 8.22495 36.2877 5.8124Z" fill="white"/>
</svg>
