<svg width="40" height="40" viewBox="0 0 40 40" fill="none" xmlns="http://www.w3.org/2000/svg">
<g clip-path="url(#clip0_134_2)">
<path d="M35 2.5C35.663 2.5 36.2989 2.76339 36.7678 3.23223C37.2366 3.70107 37.5 4.33696 37.5 5V35C37.5 35.663 37.2366 36.2989 36.7678 36.7678C36.2989 37.2366 35.663 37.5 35 37.5H5C4.33696 37.5 3.70107 37.2366 3.23223 36.7678C2.76339 36.2989 2.5 35.663 2.5 35V5C2.5 4.33696 2.76339 3.70107 3.23223 3.23223C3.70107 2.76339 4.33696 2.5 5 2.5H35ZM5 0C3.67392 0 2.40215 0.526784 1.46447 1.46447C0.526784 2.40215 0 3.67392 0 5L0 35C0 36.3261 0.526784 37.5979 1.46447 38.5355C2.40215 39.4732 3.67392 40 5 40H35C36.3261 40 37.5979 39.4732 38.5355 38.5355C39.4732 37.5979 40 36.3261 40 35V5C40 3.67392 39.4732 2.40215 38.5355 1.46447C37.5979 0.526784 36.3261 0 35 0L5 0Z" fill="black"/>
<path d="M25.5125 31.14C25.7322 31.0412 25.9187 30.8811 26.0495 30.6789C26.1804 30.4766 26.25 30.2409 26.25 30V10C26.2501 9.75905 26.1805 9.52321 26.0497 9.32088C25.9188 9.11855 25.7323 8.95835 25.5125 8.85956C25.2927 8.76077 25.0491 8.7276 24.8109 8.76405C24.5727 8.8005 24.3502 8.90501 24.17 9.065L12.92 19.065C12.7878 19.1823 12.682 19.3263 12.6096 19.4874C12.5371 19.6486 12.4996 19.8233 12.4996 20C12.4996 20.1767 12.5371 20.3514 12.6096 20.5126C12.682 20.6737 12.7878 20.8177 12.92 20.935L24.17 30.935C24.3502 31.0949 24.5728 31.1993 24.811 31.2357C25.0492 31.2721 25.2928 31.2388 25.5125 31.14Z" fill="black"/>
</g>
<defs>
<clipPath id="clip0_134_2">
<rect width="40" height="40" fill="white"/>
</clipPath>
</defs>
</svg>
