<svg width="50" height="50" viewBox="0 0 50 50" fill="none" xmlns="http://www.w3.org/2000/svg">
    <path 
    d="M21.8687 7.8125C21.8687 9.8845 21.0457 11.8716 19.5805 13.3368C18.1154 14.8019 16.1283 15.625 14.0563 15.625C11.9842 15.625 9.99711 14.8019 8.53198 13.3368C7.06685 11.8716 6.24375 9.8845 6.24375 7.8125C6.24375 5.7405 7.06685 3.75336 8.53198 2.28823C9.99711 0.8231 11.9842 0 14.0563 0C16.1283 0 18.1154 0.8231 19.5805 2.28823C21.0457 3.75336 21.8687 5.7405 21.8687 7.8125ZM35.0719 20.4781C34.7788 20.3313 34.447 20.2804 34.1234 20.3326C33.7998 20.3847 33.5008 20.5373 33.2687 20.7687L21.675 35.4875L13.3625 26.825C13.0624 26.6252 12.7024 26.5353 12.3436 26.5706C11.9847 26.6059 11.6492 26.7643 11.3937 27.0187L0 40.625V46.875C0 47.7038 0.32924 48.4987 0.915291 49.0847C1.50134 49.6708 2.2962 50 3.125 50H46.875C47.2854 50 47.6917 49.9192 48.0709 49.7621C48.45 49.6051 48.7945 49.3749 49.0847 49.0847C49.3749 48.7945 49.6051 48.45 49.7621 48.0709C49.9192 47.6917 50 47.2854 50 46.875V32.8125L35.0719 20.4781Z" 
    fill="black" />
</svg>