<svg width="40" height="36" viewBox="0 0 40 36" fill="none" xmlns="http://www.w3.org/2000/svg">
<path fill-rule="evenodd" clip-rule="evenodd" d="M0 17.6223C0 16.9593 0.263363 16.3235 0.732152 15.8547C1.20094 15.3859 1.83675 15.1225 2.49972 15.1225H31.4615L20.7277 4.39373C20.2583 3.92435 19.9946 3.28774 19.9946 2.62393C19.9946 1.96013 20.2583 1.32351 20.7277 0.854129C21.1971 0.384748 21.8337 0.121052 22.4975 0.121052C23.1613 0.121052 23.7979 0.384748 24.2673 0.854129L39.2656 15.8525C39.4984 16.0847 39.6831 16.3605 39.8091 16.6642C39.9351 16.9679 40 17.2935 40 17.6223C40 17.9511 39.9351 18.2766 39.8091 18.5803C39.6831 18.884 39.4984 19.1599 39.2656 19.3921L24.2673 34.3904C23.7979 34.8598 23.1613 35.1235 22.4975 35.1235C21.8337 35.1235 21.1971 34.8598 20.7277 34.3904C20.2583 33.921 19.9946 33.2844 19.9946 32.6206C19.9946 31.9568 20.2583 31.3202 20.7277 30.8508L31.4615 20.122H2.49972C1.83675 20.122 1.20094 19.8586 0.732152 19.3898C0.263363 18.921 0 18.2852 0 17.6223Z" fill="black"/>
</svg>
