<svg width="32" height="50" viewBox="0 0 32 50" fill="none" xmlns="http://www.w3.org/2000/svg">
<g>
<path d="M25 3.125C25.8288 3.125 26.6237 3.45424 27.2097 4.04029C27.7958 4.62634 28.125 5.4212 28.125 6.25V43.75C28.125 44.5788 27.7958 45.3737 27.2097 45.9597C26.6237 46.5458 25.8288 46.875 25 46.875H6.25C5.4212 46.875 4.62634 46.5458 4.04029 45.9597C3.45424 45.3737 3.125 44.5788 3.125 43.75V6.25C3.125 5.4212 3.45424 4.62634 4.04029 4.04029C4.62634 3.45424 5.4212 3.125 6.25 3.125H25ZM6.25 0C4.5924 0 3.00268 0.65848 1.83058 1.83058C0.65848 3.00269 0 4.5924 0 6.25V43.75C0 45.4076 0.65848 46.9973 1.83058 48.1694C3.00268 49.3415 4.5924 50 6.25 50H25C26.6576 50 28.2473 49.3415 29.4194 48.1694C30.5915 46.9973 31.25 45.4076 31.25 43.75V6.25C31.25 4.5924 30.5915 3.00269 29.4194 1.83058C28.2473 0.65848 26.6576 0 25 0L6.25 0Z" fill="black"/>
<path d="M15.625 43.75C16.4538 43.75 17.2487 43.4208 17.8347 42.8347C18.4208 42.2487 18.75 41.4538 18.75 40.625C18.75 39.7962 18.4208 39.0013 17.8347 38.4153C17.2487 37.8292 16.4538 37.5 15.625 37.5C14.7962 37.5 14.0013 37.8292 13.4153 38.4153C12.8292 39.0013 12.5 39.7962 12.5 40.625C12.5 41.4538 12.8292 42.2487 13.4153 42.8347C14.0013 43.4208 14.7962 43.75 15.625 43.75Z" fill="black"/>
</g>
</svg>
