<svg width="40" height="40" viewBox="0 0 40 40" fill="none" xmlns="http://www.w3.org/2000/svg">
<g clip-path="url(#clip0_134_8)">
<path d="M35 2.5C35.663 2.5 36.2989 2.76339 36.7678 3.23223C37.2366 3.70107 37.5 4.33696 37.5 5V35C37.5 35.663 37.2366 36.2989 36.7678 36.7678C36.2989 37.2366 35.663 37.5 35 37.5H5C4.33696 37.5 3.70107 37.2366 3.23223 36.7678C2.76339 36.2989 2.5 35.663 2.5 35V5C2.5 4.33696 2.76339 3.70107 3.23223 3.23223C3.70107 2.76339 4.33696 2.5 5 2.5H35ZM5 0C3.67392 0 2.40215 0.526784 1.46447 1.46447C0.526784 2.40215 0 3.67392 0 5L0 35C0 36.3261 0.526784 37.5979 1.46447 38.5355C2.40215 39.4732 3.67392 40 5 40H35C36.3261 40 37.5979 39.4732 38.5355 38.5355C39.4732 37.5979 40 36.3261 40 35V5C40 3.67392 39.4732 2.40215 38.5355 1.46447C37.5979 0.526784 36.3261 0 35 0L5 0Z" fill="black"/>
<path d="M14.4875 31.14C14.2678 31.0412 14.0813 30.8811 13.9505 30.6789C13.8196 30.4766 13.75 30.2409 13.75 30V10C13.7499 9.75905 13.8195 9.52321 13.9504 9.32088C14.0812 9.11855 14.2677 8.95835 14.4875 8.85956C14.7073 8.76077 14.9509 8.7276 15.1891 8.76405C15.4273 8.8005 15.6498 8.90501 15.83 9.065L27.08 19.065C27.2122 19.1823 27.318 19.3263 27.3904 19.4874C27.4629 19.6486 27.5004 19.8233 27.5004 20C27.5004 20.1767 27.4629 20.3514 27.3904 20.5126C27.318 20.6737 27.2122 20.8177 27.08 20.935L15.83 30.935C15.6498 31.0949 15.4272 31.1993 15.189 31.2357C14.9508 31.2721 14.7072 31.2388 14.4875 31.14Z" fill="black"/>
</g>
<defs>
<clipPath id="clip0_134_8">
<rect width="40" height="40" fill="white"/>
</clipPath>
</defs>
</svg>
