<svg width="40" height="40" viewBox="0 0 40 40" fill="none" xmlns="http://www.w3.org/2000/svg">
    <path
        d="M29.3603 25.858C31.7813 22.5544 32.8656 18.4585 32.3963 14.3897C31.9271 10.321 29.9389 6.57939 26.8294 3.9136C23.72 1.2478 19.7186 -0.145638 15.6259 0.0120615C11.5332 0.169761 7.65099 1.86697 4.75591 4.76413C1.86082 7.66129 0.166388 11.5448 0.0116175 15.6376C-0.143153 19.7304 1.25315 23.7307 3.92117 26.8382C6.58919 29.9458 10.3322 31.9313 14.4013 32.3977C18.4704 32.864 22.5655 31.7767 25.8674 29.3534H25.8649C25.9382 29.4534 26.0199 29.5492 26.1099 29.6409L35.7359 39.2669C36.2047 39.7361 36.8407 39.9998 37.504 40C38.1672 40.0002 38.8034 39.737 39.2725 39.2682C39.7417 38.7994 40.0054 38.1634 40.0056 37.5001C40.0059 36.8369 39.7426 36.2007 39.2738 35.7316L29.6478 26.1056C29.5585 26.015 29.4623 25.9339 29.3603 25.858ZM30.0053 16.247C30.0053 18.0529 29.6496 19.8411 28.9586 21.5095C28.2675 23.1779 27.2546 24.6938 25.9776 25.9708C24.7007 27.2477 23.1848 28.2606 21.5164 28.9517C19.848 29.6428 18.0598 29.9985 16.2539 29.9985C14.4481 29.9985 12.6599 29.6428 10.9915 28.9517C9.32308 28.2606 7.80714 27.2477 6.5302 25.9708C5.25326 24.6938 4.24034 23.1779 3.54927 21.5095C2.85819 19.8411 2.5025 18.0529 2.5025 16.247C2.5025 12.5999 3.95131 9.10221 6.5302 6.52332C9.10909 3.94443 12.6068 2.49563 16.2539 2.49563C19.901 2.49563 23.3988 3.94443 25.9776 6.52332C28.5565 9.10221 30.0053 12.5999 30.0053 16.247Z"
        fill="black" />
</svg>